<svg width="257" height="435" viewBox="0 0 257 435" fill="none" xmlns="http://www.w3.org/2000/svg">
<path d="M74.719 36.4467L100.719 140.447L76.219 86.4467C19.819 107.647 11.719 158.613 14.719 181.447L55.219 201.947L0.719009 185.947C3.11901 189.547 5.38568 213.78 6.21901 225.447C11.819 236.647 5.55234 279.113 1.71901 298.947C2.51901 297.747 7.38568 288.113 9.71901 283.447C10.519 285.447 6.05234 307.947 3.71901 318.947C-1.48099 335.347 -0.114325 348.113 1.21901 352.447C3.61901 368.847 34.8857 401.613 50.219 415.947C69.819 435.547 74.719 435.78 74.719 433.447L87.219 284.947C78.419 281.347 50.8857 264.113 38.219 255.947C33.019 251.147 30.719 233.613 30.219 225.447C30.219 221.047 31.5523 220.613 32.219 220.947C36.219 218.947 111.219 242.447 114.219 242.447C116.619 242.447 116.886 245.447 116.719 246.947L108.219 306.947C124.619 322.147 141.052 313.28 147.219 306.947L140.219 261.947C136.619 246.347 139.386 242.447 141.219 242.447C165.386 235.947 214.819 222.547 219.219 220.947C223.619 219.347 224.719 221.613 224.719 222.947V226.947C225.519 241.747 219.052 252.447 215.719 255.947C214.119 259.547 189.719 272.447 177.719 278.447C168.119 282.047 166.719 287.28 167.219 289.447L180.219 429.447C179.019 436.247 182.719 434.947 184.719 433.447L225.219 396.447C240.019 381.647 252.052 356.947 256.219 346.447C256.719 341.447 252.952 328.447 253.219 329.447C247.619 308.647 244.886 286.78 244.219 278.447C246.719 285.113 252.019 298.447 253.219 298.447C250.019 294.847 248.219 260.613 247.719 243.947C245.719 237.947 251.219 205.78 254.219 190.447C257.019 185.647 253.719 185.78 251.719 186.447L199.219 201.447C212.952 194.45 240.377 180.554 240.219 180.947C241.419 178.947 240.719 165.113 240.219 158.447C236.219 122.447 202.219 97.1134 185.719 88.9467C180.919 85.7467 178.719 86.6134 178.219 87.4467L154.219 140.447L180.219 36.4467C182.219 29.6467 178.386 23.28 176.219 20.9467C171.419 15.7467 147.219 5.4467 135.719 0.946695C129.219 -0.553305 126.719 -0.0533046 120.719 0.946695C114.719 1.9467 82.219 18.4467 82.219 18.9467C73.819 23.7467 73.719 32.6134 74.719 36.4467Z" fill="#0A2C3B"/>
</svg>
