<svg width="24" height="40" viewBox="0 0 24 40" fill="none" xmlns="http://www.w3.org/2000/svg">
<path d="M6.99767 3.35415L9.43265 12.9251L7.13815 7.95559C1.85611 9.9066 1.09752 14.597 1.37848 16.6983L5.17143 18.5849L0.0673375 17.1125C0.292105 17.4438 0.504385 19.6739 0.58243 20.7476C1.10689 21.7783 0.519994 25.6865 0.160991 27.5117C0.235913 27.4013 0.691692 26.5147 0.910216 26.0853C0.985138 26.2693 0.566821 28.34 0.348297 29.3523C-0.1387 30.8616 -0.0107069 32.0365 0.114164 32.4353C0.338931 33.9445 3.26715 36.96 4.70317 38.2791C6.53877 40.0829 6.99767 40.1043 6.99767 39.8896L8.16833 26.2233C7.34419 25.892 4.7656 24.306 3.57933 23.5545C3.09233 23.1127 2.87693 21.4992 2.8301 20.7476C2.8301 20.3427 2.95498 20.3028 3.01741 20.3335C3.39202 20.1494 10.416 22.3121 10.697 22.3121C10.9217 22.3121 10.9467 22.5882 10.9311 22.7262L10.135 28.2479C11.671 29.6468 13.21 28.8308 13.7875 28.2479L13.1319 24.1067C12.7948 22.671 13.0539 22.3121 13.2256 22.3121C15.4889 21.7139 20.1185 20.4807 20.5305 20.3335C20.9426 20.1862 21.0456 20.3948 21.0456 20.5175V20.8856C21.1206 22.2477 20.5149 23.2324 20.2028 23.5545C20.0529 23.8858 17.7678 25.073 16.6439 25.6251C15.7449 25.9564 15.6138 26.438 15.6606 26.6374L16.8781 39.5215C16.7657 40.1473 17.1122 40.0276 17.2995 39.8896L21.0925 36.4845C22.4785 35.1225 23.6055 32.8494 23.9957 31.8831C24.0425 31.4229 23.6898 30.2266 23.7148 30.3186C23.1903 28.4044 22.9343 26.392 22.8719 25.6251C23.106 26.2387 23.6024 27.4657 23.7148 27.4657C23.4151 27.1344 23.2465 23.9839 23.1997 22.4501C23.0124 21.898 23.5274 18.9377 23.8084 17.5266C24.0706 17.0849 23.7616 17.0971 23.5743 17.1585L18.6575 18.5389C19.9436 17.895 22.5121 16.6162 22.4973 16.6523C22.6096 16.4683 22.5441 15.1952 22.4973 14.5817C22.1227 11.2686 18.9384 8.93723 17.3932 8.18566C16.9436 7.89117 16.7376 7.97093 16.6908 8.04762L14.4431 12.9251L16.8781 3.35415C17.0654 2.72835 16.7064 2.14243 16.5035 1.9277C16.0539 1.44915 13.7875 0.501254 12.7105 0.0871233C12.1018 -0.05092 11.8676 -0.00490556 11.3057 0.0871233C10.7438 0.179152 7.70007 1.69763 7.70007 1.74364C6.91338 2.18538 6.90402 3.00137 6.99767 3.35415Z" fill="white"/>
</svg>
